<svg width="17" height="17" viewBox="0 0 17 17" fill="none" xmlns="http://www.w3.org/2000/svg">
<path d="M8.50008 15.5833C12.4121 15.5833 15.5834 12.412 15.5834 8.49999C15.5834 4.58797 12.4121 1.41666 8.50008 1.41666C4.58806 1.41666 1.41675 4.58797 1.41675 8.49999C1.41675 12.412 4.58806 15.5833 8.50008 15.5833Z" fill="#FF6666"/>
<path d="M6.47301 5.35518H9.11803C9.6475 5.35518 10.0998 5.45532 10.4751 5.65559C10.8503 5.85357 11.1335 6.12981 11.3245 6.48432C11.5156 6.83653 11.6111 7.24054 11.6111 7.69634C11.6111 8.15444 11.5144 8.5596 11.3211 8.91181C11.1277 9.26402 10.8423 9.53911 10.4647 9.73708C10.0872 9.93506 9.63254 10.034 9.10077 10.034H7.34317V8.98778H8.93157C9.24004 8.98778 9.49787 8.93368 9.70505 8.82548C9.91223 8.71499 10.0653 8.5642 10.1643 8.37313C10.2633 8.17976 10.3128 7.95417 10.3128 7.69634C10.3128 7.43851 10.2633 7.21406 10.1643 7.023C10.0653 6.83193 9.91223 6.68345 9.70505 6.57755C9.49787 6.47166 9.23774 6.41871 8.92466 6.41871H7.74027V12.427H6.47301V5.35518Z" fill="#333333"/>
</svg>
