<svg width="21" height="22" viewBox="0 0 21 22" fill="none" xmlns="http://www.w3.org/2000/svg">
<path d="M20.3393 1.28139C20.1933 1.13244 20.02 1.01428 19.8291 0.933653C19.6382 0.853029 19.4336 0.811528 19.227 0.811528C19.0204 0.811528 18.8158 0.853029 18.6249 0.933653C18.4341 1.01428 18.2607 1.13244 18.1148 1.28139L10.4 9.12189L2.68522 1.26532C2.53915 1.11657 2.36575 0.998579 2.17491 0.918077C1.98407 0.837576 1.77953 0.796143 1.57296 0.796143C1.3664 0.796143 1.16186 0.837576 0.971016 0.918077C0.780175 0.998579 0.606773 1.11657 0.46071 1.26532C0.314647 1.41407 0.198783 1.59066 0.119734 1.785C0.0406855 1.97935 -1.53902e-09 2.18765 0 2.39802C1.53903e-09 2.60838 0.0406855 2.81668 0.119734 3.01103C0.198783 3.20537 0.314647 3.38196 0.46071 3.53071L8.17549 11.3873L0.46071 19.2438C0.314647 19.3926 0.198783 19.5692 0.119734 19.7635C0.0406855 19.9579 0 20.1662 0 20.3765C0 20.5869 0.0406855 20.7952 0.119734 20.9895C0.198783 21.1839 0.314647 21.3605 0.46071 21.5092C0.606773 21.658 0.780175 21.776 0.971016 21.8565C1.16186 21.937 1.3664 21.9784 1.57296 21.9784C1.77953 21.9784 1.98407 21.937 2.17491 21.8565C2.36575 21.776 2.53915 21.658 2.68522 21.5092L10.4 13.6527L18.1148 21.5092C18.2608 21.658 18.4342 21.776 18.6251 21.8565C18.8159 21.937 19.0205 21.9784 19.227 21.9784C19.4336 21.9784 19.6381 21.937 19.829 21.8565C20.0198 21.776 20.1932 21.658 20.3393 21.5092C20.4853 21.3605 20.6012 21.1839 20.6803 20.9895C20.7593 20.7952 20.8 20.5869 20.8 20.3765C20.8 20.1662 20.7593 19.9579 20.6803 19.7635C20.6012 19.5692 20.4853 19.3926 20.3393 19.2438L12.6245 11.3873L20.3393 3.53071C20.9388 2.92018 20.9388 1.89192 20.3393 1.28139Z" fill="currentColor"/>
</svg>
