<svg width="17" height="18" viewBox="0 0 17 18" fill="none" xmlns="http://www.w3.org/2000/svg">
<path d="M8.50008 16.0833C12.4121 16.0833 15.5834 12.912 15.5834 8.99999C15.5834 5.08797 12.4121 1.91666 8.50008 1.91666C4.58806 1.91666 1.41675 5.08797 1.41675 8.99999C1.41675 12.912 4.58806 16.0833 8.50008 16.0833Z" stroke="white" stroke-linecap="round" stroke-linejoin="round"/>
<path d="M6.47301 5.85518H9.11803C9.6475 5.85518 10.0998 5.95532 10.4751 6.15559C10.8503 6.35357 11.1335 6.62981 11.3245 6.98432C11.5156 7.33653 11.6111 7.74054 11.6111 8.19634C11.6111 8.65444 11.5144 9.0596 11.3211 9.41181C11.1277 9.76402 10.8423 10.0391 10.4647 10.2371C10.0872 10.4351 9.63254 10.534 9.10077 10.534H7.34317V9.48778H8.93157C9.24004 9.48778 9.49787 9.43368 9.70505 9.32548C9.91223 9.21499 10.0653 9.0642 10.1643 8.87313C10.2633 8.67976 10.3128 8.45417 10.3128 8.19634C10.3128 7.93851 10.2633 7.71406 10.1643 7.523C10.0653 7.33193 9.91223 7.18345 9.70505 7.07755C9.49787 6.97166 9.23774 6.91871 8.92466 6.91871H7.74027V12.927H6.47301V5.85518Z" fill="currentColor"/>
</svg>
