<svg width="18" height="18" viewBox="0 0 18 18" fill="none" xmlns="http://www.w3.org/2000/svg">
<path d="M8.99996 0.666016C13.6033 0.666016 17.335 4.39768 17.335 9.00102C17.335 13.6035 13.6033 17.3352 8.99996 17.3352C4.39663 17.3352 0.666626 13.6035 0.666626 9.00102C0.665793 4.39768 4.39663 0.666016 8.99996 0.666016ZM8.99663 7.54102C8.7924 7.54129 8.59539 7.61656 8.443 7.75251C8.29061 7.88847 8.19344 8.07565 8.16996 8.27852L8.16413 8.37518L8.16746 12.9602L8.17246 13.0577C8.19595 13.2609 8.29339 13.4484 8.4462 13.5844C8.59902 13.7205 8.79653 13.7955 9.00112 13.7953C9.20571 13.7951 9.40307 13.7197 9.55561 13.5833C9.70815 13.447 9.80521 13.2593 9.82829 13.056L9.83329 12.9585L9.82996 8.37435L9.82413 8.27685C9.80004 8.07415 9.70239 7.88734 9.54971 7.75186C9.39702 7.61638 9.19992 7.54165 8.99579 7.54185L8.99663 7.54102ZM9.00079 4.41685C8.72419 4.41685 8.45892 4.52673 8.26334 4.72231C8.06775 4.9179 7.95788 5.18317 7.95788 5.45977C7.95788 5.73636 8.06775 6.00163 8.26334 6.19722C8.45892 6.3928 8.72419 6.50268 9.00079 6.50268C9.27739 6.50257 9.54262 6.39259 9.73812 6.19692C9.93363 6.00126 10.0434 5.73595 10.0433 5.45935C10.0432 5.18275 9.9332 4.91752 9.73753 4.72202C9.54187 4.52651 9.27656 4.41674 8.99996 4.41685H9.00079Z" fill="#96D9FF"/>
</svg>
