<svg width="24" height="25" viewBox="0 0 24 25" fill="none" xmlns="http://www.w3.org/2000/svg">
<path d="M16.1086 4.82039C16.1683 4.67 16.164 4.50275 16.0968 4.35542C16.0295 4.2081 15.9047 4.09277 15.7499 4.0348C15.5951 3.97684 15.4229 3.98099 15.2712 4.04634C15.1195 4.11169 15.0008 4.23289 14.9411 4.38328L8.69117 20.1679C8.66162 20.2424 8.64746 20.3217 8.6495 20.4015C8.65154 20.4813 8.66973 20.5599 8.70305 20.6329C8.73636 20.7058 8.78414 20.7717 8.84365 20.8267C8.90317 20.8817 8.97326 20.9248 9.04992 20.9535C9.12658 20.9822 9.2083 20.9959 9.29043 20.994C9.37257 20.992 9.45349 20.9743 9.52859 20.9419C9.60369 20.9096 9.67149 20.8632 9.72813 20.8054C9.78476 20.7475 9.82912 20.6795 9.85866 20.605L16.1086 4.82039ZM7.18117 7.78304C7.24374 7.83487 7.29516 7.89819 7.33248 7.96936C7.36981 8.04053 7.39231 8.11816 7.3987 8.19779C7.40508 8.27743 7.39523 8.3575 7.3697 8.43343C7.34417 8.50936 7.30347 8.57965 7.24992 8.64027L3.84869 12.4941L7.24867 16.3492C7.34914 16.4723 7.39661 16.6284 7.3811 16.7847C7.3656 16.941 7.28833 17.0854 7.16552 17.1876C7.04272 17.2897 6.88394 17.3417 6.72253 17.3325C6.56112 17.3234 6.40965 17.2538 6.29993 17.1385L2.54994 12.8888C2.45311 12.7788 2.3999 12.6388 2.3999 12.4941C2.3999 12.3494 2.45311 12.2095 2.54994 12.0995L6.29993 7.84982C6.40784 7.72762 6.56131 7.65206 6.72657 7.63977C6.89184 7.62747 7.05536 7.67944 7.18117 7.78425V7.78304ZM17.6186 17.8123C17.5563 17.7605 17.505 17.6973 17.4678 17.6262C17.4306 17.5551 17.4081 17.4777 17.4017 17.3982C17.3953 17.3187 17.4051 17.2387 17.4306 17.1629C17.456 17.0871 17.4965 17.0169 17.5499 16.9563L20.9524 13.1012L17.5499 9.24737C17.4965 9.18678 17.4558 9.11655 17.4303 9.04071C17.4048 8.96487 17.395 8.8849 17.4013 8.80535C17.4076 8.72581 17.43 8.64825 17.4672 8.57712C17.5044 8.50598 17.5556 8.44265 17.618 8.39075C17.6804 8.33885 17.7527 8.29939 17.8308 8.27462C17.9088 8.24986 17.9912 8.24028 18.0731 8.24642C18.1549 8.25257 18.2348 8.27432 18.308 8.31044C18.3813 8.34656 18.4464 8.39633 18.4999 8.45692L22.2499 12.7066C22.3467 12.8166 22.3999 12.9565 22.3999 13.1012C22.3999 13.2459 22.3467 13.3859 22.2499 13.4959L18.4999 17.7456C18.4465 17.8062 18.3814 17.8559 18.3083 17.8921C18.2351 17.9282 18.1553 17.95 18.0735 17.9562C17.9917 17.9625 17.9094 17.9529 17.8313 17.9282C17.7533 17.9035 17.681 17.8642 17.6186 17.8123Z" fill="white" fill-opacity="0.87"/>
</svg>
