<svg width="24" height="25" viewBox="0 0 24 25" fill="none" xmlns="http://www.w3.org/2000/svg">
<path d="M20.8493 10.337C21.8421 9.34419 22.3999 7.99759 22.3999 6.59349C22.3999 5.18939 21.8421 3.84279 20.8493 2.84994C19.8565 1.85709 18.5099 1.29932 17.1058 1.29932C15.7017 1.29932 14.3551 1.85709 13.3623 2.84994C12.3694 3.84279 11.8117 5.18939 11.8117 6.59349C11.8117 7.99759 12.3694 9.34419 13.3623 10.337C14.3551 11.3299 15.7017 11.8877 17.1058 11.8877C18.5099 11.8877 19.8565 11.3299 20.8493 10.337Z" fill="white" fill-opacity="0.87"/>
<path d="M20.047 12.3583V14.5653C20.047 15.5689 19.2187 16.4077 18.1646 16.4077H12.3776L7.34696 20.1219L7.34461 20.123H7.34108V16.4077H5.45873C4.40461 16.4077 3.57637 15.5689 3.57637 14.5653V6.67114C3.57637 5.6676 4.40461 4.82877 5.45873 4.82877H10.8787C10.9938 4.42236 11.1487 4.0283 11.3411 3.65228H5.45873C3.76931 3.65228 2.3999 5.00406 2.3999 6.67114V14.5653C2.3999 16.2324 3.76931 17.5842 5.45873 17.5842H6.16461V20.1395C6.16494 20.3902 6.24715 20.634 6.39873 20.8336C6.58781 21.0807 6.86634 21.2437 7.17438 21.2875C7.48242 21.3313 7.79534 21.2524 8.04578 21.0678L12.7646 17.5842H18.1646C19.854 17.5842 21.2234 16.2336 21.2234 14.5653V11.5853C20.8605 11.8849 20.466 12.1441 20.047 12.3583Z" fill="white" fill-opacity="0.87"/>
<path d="M16.5849 8.20986C16.5891 7.83901 16.6264 7.53963 16.6968 7.31173C16.7693 7.08175 16.8688 6.89736 16.9952 6.75855C17.1236 6.61974 17.2956 6.48403 17.511 6.35144C17.6457 6.26649 17.7607 6.17533 17.856 6.07796C17.9534 5.97851 18.029 5.86663 18.0829 5.74232C18.1388 5.61801 18.1668 5.48127 18.1668 5.3321C18.1668 5.15392 18.1243 4.9975 18.0394 4.86283C17.9565 4.72816 17.8415 4.62354 17.6944 4.54895C17.5494 4.47437 17.3888 4.43707 17.2127 4.43707C17.049 4.43707 16.8957 4.47229 16.7528 4.54274C16.6098 4.61111 16.4917 4.71573 16.3985 4.85662C16.3052 4.9975 16.2524 5.17153 16.24 5.37872H15.289C15.3015 5.01615 15.3936 4.70434 15.5656 4.44329C15.7376 4.18224 15.9675 3.98438 16.2555 3.84971C16.5435 3.71504 16.8636 3.64771 17.2158 3.64771C17.5929 3.64771 17.9254 3.71815 18.2134 3.85903C18.5035 3.99992 18.7272 4.19881 18.8847 4.45572C19.0442 4.71262 19.124 5.00786 19.124 5.34142C19.124 5.56932 19.0877 5.77651 19.0152 5.96297C18.9448 6.14943 18.8432 6.31518 18.7106 6.46021C18.5801 6.60524 18.4185 6.7368 18.2258 6.85489C18.0435 6.9647 17.8995 7.07865 17.7939 7.19674C17.6882 7.31276 17.6105 7.45054 17.5608 7.61007C17.511 7.7696 17.4852 7.96953 17.4831 8.20986V8.2658H16.5849V8.20986ZM17.0604 10.1584C16.9485 10.1584 16.8439 10.1304 16.7465 10.0745C16.6492 10.0165 16.5725 9.94087 16.5166 9.84764C16.4627 9.75233 16.4368 9.64874 16.4389 9.53687C16.4368 9.42499 16.4627 9.3214 16.5166 9.22609C16.5725 9.12872 16.6492 9.05309 16.7465 8.99923C16.8439 8.94329 16.9485 8.91532 17.0604 8.91532C17.1723 8.91532 17.2759 8.94329 17.3712 8.99923C17.4686 9.05309 17.5442 9.12872 17.5981 9.22609C17.654 9.3214 17.683 9.42499 17.6851 9.53687C17.683 9.64874 17.654 9.75233 17.5981 9.84764C17.5442 9.94087 17.4686 10.0165 17.3712 10.0745C17.2759 10.1304 17.1723 10.1584 17.0604 10.1584Z" fill="#363636"/>
</svg>
